<?xml version="1.0" encoding="UTF-8"?>
<svg width="448px" height="302px" viewBox="0 0 448 302" version="1.1" xmlns="http://www.w3.org/2000/svg" xmlns:xlink="http://www.w3.org/1999/xlink">
    <!-- Generator: Sketch 55.2 (78181) - https://sketchapp.com -->
    <title>Shape</title>
    <desc>Created with Sketch.</desc>
    <g id="Page-1" stroke="none" stroke-width="1" fill="none" fill-rule="evenodd">
        <g id="preview" fill="#FFFFFF" fill-rule="nonzero">
            <path d="M224,0 C122.2,0 35.6,62.4 0,151 C35.6,239.6 122.2,302 224,302 C325.8,302 412.4,239.6 448,151 C412.4,62.4 325.8,0 224,0 Z M224,251.7 C168,251.7 122.2,206.4 122.2,151 C122.2,95.6 168,50.3 224,50.3 C280,50.3 325.8,95.6 325.8,151 C325.8,206.4 280,251.7 224,251.7 Z M224,90.6 C190.4,90.6 162.9,117.8 162.9,151 C162.9,184.2 190.4,211.4 224,211.4 C257.6,211.4 285.1,184.2 285.1,151 C285.1,117.8 257.6,90.6 224,90.6 L224,90.6 Z" id="Shape"></path>
        </g>
    </g>
</svg>